<svg version="1.1" id="Layer_1" xmlns="http://www.w3.org/2000/svg" xmlns:xlink="http://www.w3.org/1999/xlink" x="0px" y="0px"
	 width="100%" viewBox="0 0 2048 1024" enable-background="new 0 0 2048 1024" xml:space="preserve">
<path fill="#FFFFFF" opacity="1.000000" stroke="none" 
	d="
M1327.000000,1025.000000 
	C884.666748,1025.000000 442.833496,1025.000000 1.000178,1025.000000 
	C1.000118,683.666809 1.000118,342.333618 1.000059,1.000315 
	C683.666443,1.000210 1366.332886,1.000210 2048.999512,1.000105 
	C2048.999512,342.333008 2048.999512,683.666016 2048.999756,1024.999512 
	C1808.500000,1025.000000 1568.000000,1025.000000 1327.000000,1025.000000 
M516.721375,447.061981 
	C517.064941,447.269226 517.408569,447.476440 517.752136,447.683685 
	C517.540283,447.088501 517.328369,446.493317 517.079346,445.297974 
	C516.735168,444.831390 516.390991,444.364838 515.948303,443.206848 
	C491.564850,400.439148 467.207916,357.656281 442.789001,314.908875 
	C425.465698,284.583008 408.058594,254.305023 390.506073,223.413864 
	C389.990387,223.604401 389.474731,223.794922 388.405884,224.388214 
	C362.941467,269.913086 337.452393,315.424225 312.033173,360.974304 
	C306.870605,370.225433 301.971497,379.623566 296.304443,389.192139 
	C250.221893,471.609650 204.139343,554.027161 158.144516,636.287781 
	C238.755066,636.287781 318.927368,636.287781 399.099701,636.287781 
	C387.735870,633.699158 376.659241,630.890869 366.871399,624.531250 
	C350.820984,614.102539 342.627197,598.306763 338.151367,580.442383 
	C335.909332,571.493652 335.138367,562.176392 333.613159,552.459290 
	C332.164276,552.459290 330.374481,552.439148 328.585266,552.462708 
	C319.590851,552.581055 310.595886,552.797974 301.603241,552.722839 
	C300.519409,552.713806 299.448578,551.146057 298.371735,550.300781 
	C299.412292,549.588196 300.398163,548.368408 301.502655,548.249329 
	C306.791138,547.679504 312.140350,547.638184 317.415253,546.984192 
	C330.126953,545.408081 334.684784,540.234436 334.628815,527.641479 
	C334.459869,489.643585 334.261292,451.645844 334.027802,413.648285 
	C333.947876,400.640900 328.970520,395.238098 315.903229,393.973389 
	C309.793823,393.382111 303.657990,393.064575 297.439606,392.616150 
	C297.322266,391.406158 297.211792,390.267090 298.007263,389.231262 
	C332.555511,389.231262 367.103729,389.231262 401.651978,389.231262 
	C401.895996,389.637482 402.140045,390.043701 402.384064,390.449921 
	C401.283447,391.147125 400.242371,392.312103 399.071930,392.461151 
	C393.806396,393.131714 388.450623,393.193756 383.226044,394.065948 
	C371.910217,395.954987 366.945374,402.094788 366.988464,413.567963 
	C367.007782,418.718170 367.116699,423.868042 367.108246,429.950592 
	C367.108246,445.446411 367.108246,460.942261 367.108246,477.461090 
	C378.282654,469.346344 390.207886,466.326813 402.695984,464.837067 
	C402.695984,459.862244 402.706116,455.390869 402.689789,450.919556 
	C402.684937,449.591919 402.669006,448.258850 402.550140,446.938019 
	C401.906403,439.784302 400.477448,437.441132 393.260681,436.043488 
	C386.150055,434.666382 378.811737,434.285370 371.550964,433.946442 
	C368.395081,433.799133 367.286194,432.929504 368.905212,429.838959 
	C400.312408,429.616882 431.719452,429.260681 463.126862,429.223145 
	C481.929626,429.200684 499.749573,432.885590 515.096924,445.551025 
	C515.519287,445.892914 515.941650,446.234772 516.721375,447.061981 
M557.500122,635.206543 
	C579.886841,635.206543 602.273621,635.206543 625.522766,635.206543 
	C592.152222,576.728455 559.334290,519.218689 526.516357,461.708984 
	C526.135254,461.928802 525.754089,462.148651 525.372986,462.368469 
	C527.523621,471.764008 527.533020,478.309540 525.384888,485.779907 
	C520.395020,503.132629 507.394287,511.593079 491.081451,515.716980 
	C482.809296,517.808167 474.178284,518.479797 465.480438,519.828735 
	C465.480438,524.557251 465.573181,529.374634 465.408569,534.183167 
	C465.372101,535.248596 464.426514,536.282898 463.899506,537.331482 
	C463.184570,536.383057 462.118500,535.534851 461.814453,534.469238 
	C460.366730,529.395081 459.126282,524.261780 457.875641,519.396851 
	C449.724243,519.396851 441.994141,519.396851 434.354370,519.396851 
	C434.354370,538.448547 434.261047,557.101746 434.404297,575.753113 
	C434.455322,582.401001 436.445557,585.478699 442.946198,586.881348 
	C450.316711,588.471741 457.959259,588.801392 465.385559,589.667786 
	C466.782776,582.358032 466.782776,582.358032 469.743713,581.899231 
	C469.743713,584.056091 469.743713,586.186890 469.743713,587.121399 
	C471.706787,589.093018 473.021088,590.413086 475.134491,592.535706 
	C471.811920,592.950684 470.224060,593.149048 469.088379,593.290833 
	C460.612854,616.549988 444.682922,630.553284 422.316071,635.210693 
	C466.192810,635.210693 511.346527,635.210693 557.500122,635.206543 
M1098.452393,586.156433 
	C1098.452393,586.756714 1098.452393,587.356995 1098.452393,587.957275 
	C1096.726807,586.835938 1095.847168,585.371033 1095.001343,583.886841 
	C1081.178223,559.632141 1067.385864,535.359802 1053.476929,511.154297 
	C1052.600708,509.629395 1050.869751,507.607300 1049.457764,507.542938 
	C1041.702393,507.189423 1033.922485,507.374207 1025.968262,507.374207 
	C1025.968262,543.514709 1025.968262,579.123779 1025.968262,614.752197 
	C1032.555420,614.752197 1038.985718,614.752197 1045.334473,614.752197 
	C1045.334473,588.028625 1045.334473,561.560974 1045.334473,534.151917 
	C1046.558716,536.255005 1047.373901,537.621582 1048.157227,539.006226 
	C1061.820557,563.159363 1075.466309,587.322510 1089.177246,611.448547 
	C1089.937256,612.785950 1091.198364,614.802429 1092.282104,614.838867 
	C1100.684326,615.121643 1109.100220,614.994873 1117.309814,614.994873 
	C1117.309814,578.726318 1117.309814,543.183533 1117.309814,507.629120 
	C1110.639893,507.629120 1104.380371,507.629120 1098.318726,507.629120 
	C1098.318726,533.673706 1098.318726,559.457703 1098.452393,586.156433 
M1010.819946,592.281189 
	C1016.143555,582.948059 1018.246948,572.795044 1018.539001,562.166931 
	C1019.224365,537.225769 1008.230835,517.780212 988.311157,510.135956 
	C972.345093,504.008942 956.036743,504.204468 939.975220,510.101013 
	C930.800781,513.469116 923.611023,519.574951 918.313782,527.796936 
	C906.426025,546.248108 907.114441,578.217102 919.854980,596.131592 
	C930.329773,610.860229 945.392700,616.254456 962.728821,616.449768 
	C982.543396,616.673035 999.389038,610.601868 1010.819946,592.281189 
M1128.969971,598.498535 
	C1128.969971,603.928223 1128.969971,609.357849 1128.969971,614.789429 
	C1158.463379,614.789429 1187.383179,614.789429 1216.440674,614.789429 
	C1216.440674,609.041809 1216.440674,603.513489 1216.440674,597.484253 
	C1194.721558,597.484253 1173.323486,597.484253 1151.916504,597.484253 
	C1151.916504,587.773499 1151.916504,578.573486 1151.916504,569.069336 
	C1171.128906,569.069336 1189.913574,569.069336 1208.600342,569.069336 
	C1208.600342,563.170532 1208.600342,557.594421 1208.600342,551.740234 
	C1189.468628,551.740234 1170.682007,551.740234 1151.745117,551.740234 
	C1151.745117,542.717590 1151.745117,533.992249 1151.745117,524.803833 
	C1172.396851,524.803833 1192.794922,524.803833 1213.224243,524.803833 
	C1213.224243,518.779541 1213.224243,513.225159 1213.224243,507.719543 
	C1184.957642,507.719543 1157.068604,507.719543 1128.969971,507.719543 
	C1128.969971,537.875244 1128.969971,567.687073 1128.969971,598.498535 
M1742.641846,520.962158 
	C1733.153931,546.220886 1723.666016,571.479553 1714.216309,596.636475 
	C1714.110596,596.437927 1713.830200,596.030457 1713.663452,595.580750 
	C1703.163208,567.263123 1692.693481,538.934082 1682.111572,510.647125 
	C1681.631348,509.363556 1680.194214,507.580780 1679.119263,507.520447 
	C1673.513916,507.205841 1667.881592,507.373779 1662.085327,507.373779 
	C1662.085327,543.453918 1662.085327,579.029724 1662.085327,614.770752 
	C1666.357666,614.770752 1670.426147,614.770752 1674.774902,614.770752 
	C1674.774902,584.738647 1674.774902,554.942871 1674.774902,524.630676 
	C1686.375977,555.173279 1697.761475,585.148193 1709.011963,614.767822 
	C1713.049194,614.767822 1716.340576,614.767822 1719.639648,614.767822 
	C1730.729370,585.320923 1741.740845,556.081665 1752.752441,526.842407 
	C1752.977295,526.869934 1753.202148,526.897400 1753.427002,526.924927 
	C1753.427002,556.231262 1753.427002,585.537537 1753.427002,614.703674 
	C1757.958496,614.703674 1762.037842,614.703674 1766.046509,614.703674 
	C1766.046509,578.811646 1766.046509,543.226807 1766.046509,507.366638 
	C1764.246460,507.366638 1762.762817,507.369843 1761.279175,507.366119 
	C1747.662231,507.332092 1747.662231,507.331757 1742.641846,520.962158 
M645.393738,521.509399 
	C645.393738,552.589355 645.393738,583.669250 645.393738,614.759399 
	C653.210876,614.759399 660.460754,614.759399 668.151001,614.759399 
	C668.151001,602.127197 668.151001,589.737183 668.151001,577.092163 
	C675.557007,577.092163 682.526306,577.235718 689.486511,577.046875 
	C695.122742,576.894043 700.857544,576.912842 706.357788,575.859009 
	C723.159363,572.639954 733.953552,558.986084 733.965454,541.662109 
	C733.977661,523.890320 724.779541,511.062073 706.781494,509.134003 
	C686.862915,507.000153 666.615784,507.931610 646.511169,507.555420 
	C646.253113,507.550598 645.988281,507.906342 645.393799,508.332153 
	C645.393799,512.235413 645.393799,516.375549 645.393738,521.509399 
M809.730347,615.007446 
	C815.140442,615.007446 820.550476,615.007446 825.964294,615.007446 
	C825.964294,614.128845 826.056396,613.767578 825.951233,613.478027 
	C813.431763,578.998047 800.924377,544.513611 788.254089,510.089142 
	C787.807983,508.877319 785.767029,507.551575 784.416748,507.493042 
	C778.098083,507.219147 771.744507,507.646637 765.436768,507.267365 
	C761.677979,507.041382 760.296265,508.575897 759.131470,511.835022 
	C750.807678,535.124207 742.308228,558.350708 733.850830,581.592102 
	C729.845459,592.599365 725.809692,603.595520 721.730896,614.752136 
	C729.566895,614.752136 736.832703,614.752136 744.222961,614.752136 
	C747.078857,606.586487 749.741577,598.557556 752.782959,590.674622 
	C753.307434,589.315430 755.421814,587.716614 756.832520,587.687012 
	C768.322327,587.445557 779.820435,587.636780 791.313354,587.486694 
	C793.956726,587.452148 795.127197,588.414978 795.917786,590.804321 
	C798.576721,598.839844 801.408447,606.818115 804.239441,615.007446 
	C805.822021,615.007446 807.309937,615.007446 809.730347,615.007446 
M815.954712,522.677002 
	C827.338196,553.471924 838.721680,584.266846 849.998596,614.773621 
	C858.011841,614.773621 865.450989,614.773621 873.024170,614.773621 
	C886.156250,579.029297 899.228760,543.447021 912.441650,507.482666 
	C904.236267,507.482666 896.916809,507.482666 889.058350,507.482666 
	C879.896973,536.502380 870.706848,565.613220 861.559143,594.589661 
	C852.338684,565.521240 843.114990,536.442627 833.976257,507.631927 
	C825.900757,507.631927 818.468018,507.631927 810.417664,507.631927 
	C812.290588,512.680542 814.006165,517.305237 815.954712,522.677002 
M1601.500366,553.902588 
	C1595.067261,553.902588 1588.634277,553.902588 1582.196777,553.902588 
	C1582.196777,542.041870 1582.196777,530.771301 1582.196777,519.156006 
	C1604.530029,519.156006 1626.633667,519.156006 1648.619263,519.156006 
	C1648.619263,515.073059 1648.619263,511.343079 1648.619263,507.699158 
	C1621.355835,507.699158 1594.457520,507.699158 1567.505249,507.699158 
	C1567.505249,543.592041 1567.505249,579.146118 1567.505249,614.688232 
	C1595.834229,614.688232 1623.878174,614.688232 1651.686279,614.688232 
	C1651.686279,610.624390 1651.686279,606.891235 1651.686279,602.787720 
	C1628.262939,602.787720 1605.199463,602.787720 1582.178711,602.787720 
	C1582.178711,590.299194 1582.178711,578.197449 1582.178711,565.704712 
	C1592.666382,565.704712 1602.945190,565.704773 1613.223877,565.704773 
	C1623.470947,565.704773 1633.717896,565.704712 1644.108398,565.704712 
	C1644.108398,561.456360 1644.108398,557.839294 1644.108398,553.902588 
	C1630.109863,553.902588 1616.304932,553.902588 1601.500366,553.902588 
M1258.780029,536.167969 
	C1259.054688,545.916016 1263.777222,552.985107 1272.277344,557.329773 
	C1276.824951,559.654175 1281.697388,561.507446 1286.611572,562.916138 
	C1296.821777,565.842834 1307.299072,567.890991 1317.398438,571.135071 
	C1326.013550,573.902344 1329.163940,578.840576 1329.066528,586.500549 
	C1328.969604,594.136841 1325.199341,600.041260 1316.977661,602.278687 
	C1310.192627,604.125183 1302.907837,604.936035 1295.861450,604.848877 
	C1282.948486,604.689087 1271.852539,600.707214 1267.589600,586.419556 
	C1262.821899,587.392822 1258.335938,588.308655 1253.849976,589.224426 
	C1256.213867,600.472717 1262.941650,608.661865 1274.081055,612.507996 
	C1290.465942,618.165161 1307.172363,618.269958 1323.573486,612.648804 
	C1336.732300,608.138855 1343.549927,598.255310 1343.658203,585.256042 
	C1343.761475,572.838135 1337.741821,564.112976 1324.284668,559.215698 
	C1315.738647,556.105591 1306.657349,554.496460 1297.905762,551.910767 
	C1291.729004,550.085754 1285.231934,548.583557 1279.712524,545.461670 
	C1269.935913,539.931641 1270.405273,526.426514 1280.248657,520.949707 
	C1283.505005,519.137817 1287.353149,517.781067 1291.039673,517.457397 
	C1306.039795,516.140869 1320.395752,515.861267 1327.163330,533.020264 
	C1331.645508,532.220032 1336.179688,531.410522 1340.974121,530.554565 
	C1337.936279,519.842407 1332.099609,512.034790 1321.375122,508.854065 
	C1306.973999,504.582977 1292.427979,504.436249 1278.102051,508.987427 
	C1264.955078,513.164124 1259.144165,521.484863 1258.780029,536.167969 
M1403.473999,509.917419 
	C1392.616943,514.586548 1386.728638,522.566711 1386.706299,534.642883 
	C1386.683594,546.857117 1392.974121,554.733826 1403.812500,559.093567 
	C1409.943237,561.559692 1416.429932,563.162842 1422.797852,565.011658 
	C1431.078125,567.415649 1439.612061,569.117676 1447.642944,572.161011 
	C1455.384766,575.094727 1458.086792,580.912964 1456.931274,588.978516 
	C1455.989746,595.550537 1452.076904,600.345825 1445.911743,601.890137 
	C1438.752686,603.683411 1431.227905,604.876343 1423.871216,604.830139 
	C1410.961792,604.749146 1399.855469,600.718506 1395.591675,586.420349 
	C1390.825806,587.392029 1386.338257,588.307007 1381.679321,589.256958 
	C1384.421997,601.014526 1391.328735,608.765442 1402.083008,612.498901 
	C1418.459595,618.184326 1435.174927,618.270813 1451.577515,612.647034 
	C1464.737183,608.135071 1471.555054,598.246887 1471.658081,585.247681 
	C1471.756714,572.827209 1465.737183,564.109741 1452.272827,559.212158 
	C1443.725342,556.102966 1434.642944,554.494934 1425.890625,551.908081 
	C1419.713501,550.082397 1413.215698,548.577393 1407.698608,545.451050 
	C1397.921387,539.910645 1398.417847,526.431274 1408.263672,520.933411 
	C1411.377930,519.194397 1415.043945,517.890991 1418.571777,517.541260 
	C1434.015381,516.010071 1448.471558,515.974609 1455.180054,533.028015 
	C1459.661255,532.220703 1464.191528,531.404602 1468.972900,530.543274 
	C1465.924805,519.815063 1460.087280,511.961060 1449.341309,508.856567 
	C1434.259888,504.499603 1419.154297,504.452423 1403.473999,509.917419 
M460.115723,467.572784 
	C461.231537,465.930237 462.347321,464.287689 463.463135,462.645142 
	C464.102600,462.899078 464.742035,463.153015 465.381500,463.406952 
	C465.381500,480.405823 465.381500,497.404694 465.381500,514.397583 
	C480.198090,514.033875 487.388397,510.086823 490.887482,499.281555 
	C496.252380,482.714691 496.170746,465.869446 490.954895,449.240540 
	C488.625092,441.812744 483.444550,435.819763 475.721008,434.922546 
	C461.979340,433.326324 448.065033,433.216156 433.973602,432.471252 
	C433.973602,445.797089 433.954376,457.765259 434.012238,469.733063 
	C434.016571,470.634979 434.322571,471.765411 434.910583,472.395569 
	C437.740692,475.428101 440.670746,478.371979 443.653351,481.256287 
	C446.158142,483.678650 448.864868,483.640717 450.962097,480.888885 
	C454.075745,476.803314 456.876923,472.479553 460.115723,467.572784 
M402.806396,473.369720 
	C401.456177,473.030670 399.869385,472.053741 398.793030,472.453003 
	C389.869934,475.762817 384.052795,482.415131 380.029083,490.785461 
	C373.539948,504.284485 372.283051,518.883484 371.270111,533.507996 
	C370.631958,542.721130 371.693939,544.338379 381.041016,546.037292 
	C387.856323,547.275940 394.827423,547.657349 401.873383,548.436951 
	C402.915070,551.597656 401.381866,552.241394 398.438995,552.201050 
	C389.364532,552.076599 380.287231,552.155640 370.535675,552.155640 
	C371.128632,565.087158 371.672516,576.949097 372.225067,588.999756 
	C375.389465,588.999756 377.381256,589.094727 379.360840,588.979858 
	C383.347198,588.748596 387.339691,588.518860 391.306793,588.081421 
	C400.817871,587.032715 403.113953,584.482422 403.091919,575.087524 
	C403.013153,541.460999 402.908173,507.834503 402.806396,473.369720 
M1523.832031,537.500732 
	C1523.832031,531.532776 1523.832031,525.564819 1523.832031,519.131409 
	C1536.393433,519.131409 1548.473511,519.131409 1560.494141,519.131409 
	C1560.494141,515.049194 1560.494141,511.447968 1560.494141,507.657288 
	C1530.991943,507.657288 1501.764526,507.657288 1472.345947,507.657288 
	C1472.345947,511.577179 1472.345947,515.194519 1472.345947,519.256470 
	C1484.523804,519.256470 1496.617432,519.256470 1509.243896,519.256470 
	C1509.243896,551.415527 1509.243896,583.135620 1509.243896,614.703857 
	C1514.380737,614.703857 1518.969482,614.703857 1523.832031,614.703857 
	C1523.832031,589.094116 1523.832031,563.797241 1523.832031,537.500732 
M376.500000,600.011658 
	C378.262939,603.575928 379.807007,607.270081 381.830200,610.679932 
	C387.718384,620.603760 395.964661,627.670898 407.774048,628.806641 
	C422.423004,630.215454 435.645813,625.930847 447.378967,617.013916 
	C455.488953,610.850525 461.916718,603.516541 464.701599,593.329102 
	C434.459076,593.329102 404.479401,593.329102 374.080353,593.329102 
	C374.873993,595.609741 375.519104,597.463562 376.500000,600.011658 
M1355.083496,528.500122 
	C1355.083496,557.242371 1355.083496,585.984619 1355.083496,614.612549 
	C1360.361450,614.612549 1365.070679,614.612549 1369.664551,614.612549 
	C1369.664551,578.786499 1369.664551,543.362854 1369.664551,507.701630 
	C1364.742188,507.701630 1360.026245,507.701630 1355.083496,507.701630 
	C1355.083496,514.528625 1355.083496,521.014465 1355.083496,528.500122 
M1783.752075,577.499878 
	C1783.752075,589.907043 1783.752075,602.314209 1783.752075,614.703491 
	C1788.885498,614.703491 1793.454224,614.703491 1797.901611,614.703491 
	C1797.901611,578.864136 1797.901611,543.323730 1797.901611,507.761902 
	C1793.079712,507.761902 1788.546875,507.761902 1783.752075,507.761902 
	C1783.752075,530.927490 1783.752075,553.713623 1783.752075,577.499878 
M440.387054,484.122894 
	C438.547455,482.139313 436.707855,480.155731 434.069733,477.311157 
	C434.069733,489.858765 434.064880,500.938873 434.080048,512.018982 
	C434.081116,512.806641 434.229218,513.594055 434.327911,514.568726 
	C441.785034,514.568726 448.965485,514.568726 456.397583,514.568726 
	C453.934326,502.920746 448.243378,493.350220 440.387054,484.122894 
z"/>
<path fill="#01AD66" opacity="1.000000" stroke="none" 
	d="
M297.101318,389.128021 
	C297.211792,390.267090 297.322266,391.406158 297.439606,392.616150 
	C303.657990,393.064575 309.793823,393.382111 315.903229,393.973389 
	C328.970520,395.238098 333.947876,400.640900 334.027802,413.648285 
	C334.261292,451.645844 334.459869,489.643585 334.628815,527.641479 
	C334.684784,540.234436 330.126953,545.408081 317.415253,546.984192 
	C312.140350,547.638184 306.791138,547.679504 301.502655,548.249329 
	C300.398163,548.368408 299.412292,549.588196 298.371735,550.300781 
	C299.448578,551.146057 300.519409,552.713806 301.603241,552.722839 
	C310.595886,552.797974 319.590851,552.581055 328.585266,552.462708 
	C330.374481,552.439148 332.164276,552.459290 333.613159,552.459290 
	C335.138367,562.176392 335.909332,571.493652 338.151367,580.442383 
	C342.627197,598.306763 350.820984,614.102539 366.871399,624.531250 
	C376.659241,630.890869 387.735870,633.699158 399.099701,636.287781 
	C318.927368,636.287781 238.755066,636.287781 158.144516,636.287781 
	C204.139343,554.027161 250.221893,471.609650 296.666992,389.115356 
	C297.029572,389.038544 297.101318,389.128021 297.101318,389.128021 
z"/>
<path fill="#01AD66" opacity="1.000000" stroke="none" 
	d="
M367.184937,429.018066 
	C367.116699,423.868042 367.007782,418.718170 366.988464,413.567963 
	C366.945374,402.094788 371.910217,395.954987 383.226044,394.065948 
	C388.450623,393.193756 393.806396,393.131714 399.071930,392.461151 
	C400.242371,392.312103 401.283447,391.147125 402.384064,390.449921 
	C402.140045,390.043701 401.895996,389.637482 401.651978,389.231262 
	C367.103729,389.231262 332.555511,389.231262 297.554291,389.179626 
	C297.101318,389.128021 297.029572,389.038544 296.990234,388.996216 
	C301.971497,379.623566 306.870605,370.225433 312.033173,360.974304 
	C337.452393,315.424225 362.941467,269.913086 388.970764,224.191437 
	C389.920044,223.998337 390.304474,224.001999 390.688873,224.005676 
	C408.058594,254.305023 425.465698,284.583008 442.789001,314.908875 
	C467.207916,357.656281 491.564850,400.439148 515.870239,443.799927 
	C515.496338,444.609070 515.200500,444.825073 514.904602,445.041107 
	C499.749573,432.885590 481.929626,429.200684 463.126862,429.223145 
	C431.719452,429.260681 400.312408,429.616882 368.355774,429.684479 
	C367.653900,429.292969 367.446747,429.122314 367.184937,429.018066 
z"/>
<path fill="#01AD66" opacity="1.000000" stroke="none" 
	d="
M557.000183,635.208618 
	C511.346527,635.210693 466.192810,635.210693 422.316071,635.210693 
	C444.682922,630.553284 460.612854,616.549988 469.088379,593.290833 
	C470.224060,593.149048 471.811920,592.950684 475.134491,592.535706 
	C473.021088,590.413086 471.706787,589.093018 469.743713,587.121399 
	C469.743713,586.186890 469.743713,584.056091 469.743713,581.899231 
	C466.782776,582.358032 466.782776,582.358032 465.385559,589.667786 
	C457.959259,588.801392 450.316711,588.471741 442.946198,586.881348 
	C436.445557,585.478699 434.455322,582.401001 434.404297,575.753113 
	C434.261047,557.101746 434.354370,538.448547 434.354370,519.396851 
	C441.994141,519.396851 449.724243,519.396851 457.875641,519.396851 
	C459.126282,524.261780 460.366730,529.395081 461.814453,534.469238 
	C462.118500,535.534851 463.184570,536.383057 463.899536,537.331482 
	C464.426514,536.282898 465.372101,535.248596 465.408569,534.183167 
	C465.573181,529.374634 465.480438,524.557251 465.480438,519.828735 
	C474.178284,518.479797 482.809296,517.808167 491.081451,515.716980 
	C507.394287,511.593079 520.395020,503.132629 525.384888,485.779907 
	C527.533020,478.309540 527.523621,471.764008 525.372986,462.368469 
	C525.754089,462.148651 526.135254,461.928802 526.516357,461.708984 
	C559.334290,519.218689 592.152222,576.728455 625.522766,635.206543 
	C602.273621,635.206543 579.886841,635.206543 557.000183,635.208618 
z"/>
<path fill="#040404" opacity="1.000000" stroke="none" 
	d="
M1098.385498,585.699097 
	C1098.318726,559.457703 1098.318726,533.673706 1098.318726,507.629120 
	C1104.380371,507.629120 1110.639893,507.629120 1117.309814,507.629120 
	C1117.309814,543.183533 1117.309814,578.726318 1117.309814,614.994873 
	C1109.100220,614.994873 1100.684326,615.121643 1092.282104,614.838867 
	C1091.198364,614.802429 1089.937256,612.785950 1089.177246,611.448547 
	C1075.466309,587.322510 1061.820557,563.159363 1048.157227,539.006226 
	C1047.373901,537.621582 1046.558716,536.255005 1045.334473,534.151917 
	C1045.334473,561.560974 1045.334473,588.028625 1045.334473,614.752197 
	C1038.985718,614.752197 1032.555420,614.752197 1025.968262,614.752197 
	C1025.968262,579.123779 1025.968262,543.514709 1025.968262,507.374207 
	C1033.922485,507.374207 1041.702393,507.189423 1049.457764,507.542938 
	C1050.869751,507.607300 1052.600708,509.629395 1053.476929,511.154297 
	C1067.385864,535.359802 1081.178223,559.632141 1095.001343,583.886841 
	C1095.847168,585.371033 1096.726807,586.835938 1098.452393,587.957275 
	C1098.452393,587.356995 1098.452393,586.756714 1098.385498,585.699097 
z"/>
<path fill="#030303" opacity="1.000000" stroke="none" 
	d="
M1010.612244,592.582642 
	C999.389038,610.601868 982.543396,616.673035 962.728821,616.449768 
	C945.392700,616.254456 930.329773,610.860229 919.854980,596.131592 
	C907.114441,578.217102 906.426025,546.248108 918.313782,527.796936 
	C923.611023,519.574951 930.800781,513.469116 939.975220,510.101013 
	C956.036743,504.204468 972.345093,504.008942 988.311157,510.135956 
	C1008.230835,517.780212 1019.224365,537.225769 1018.539001,562.166931 
	C1018.246948,572.795044 1016.143555,582.948059 1010.612244,592.582642 
M944.994385,529.396545 
	C941.632629,534.434753 937.174072,539.069641 935.141663,544.596680 
	C931.138062,555.484131 931.637268,566.921082 935.201660,577.956360 
	C939.677002,591.811890 951.189087,599.474915 965.689453,598.824280 
	C980.374878,598.165283 990.888123,589.791382 993.777466,575.138062 
	C995.173340,568.058899 995.480042,560.550781 994.927856,553.340393 
	C992.940796,527.395142 967.635864,515.061951 944.994385,529.396545 
z"/>
<path fill="#030303" opacity="1.000000" stroke="none" 
	d="
M1128.969971,597.998718 
	C1128.969971,567.687073 1128.969971,537.875244 1128.969971,507.719543 
	C1157.068604,507.719543 1184.957642,507.719543 1213.224243,507.719543 
	C1213.224243,513.225159 1213.224243,518.779541 1213.224243,524.803833 
	C1192.794922,524.803833 1172.396851,524.803833 1151.745117,524.803833 
	C1151.745117,533.992249 1151.745117,542.717590 1151.745117,551.740234 
	C1170.682007,551.740234 1189.468628,551.740234 1208.600342,551.740234 
	C1208.600342,557.594421 1208.600342,563.170532 1208.600342,569.069336 
	C1189.913574,569.069336 1171.128906,569.069336 1151.916504,569.069336 
	C1151.916504,578.573486 1151.916504,587.773499 1151.916504,597.484253 
	C1173.323486,597.484253 1194.721558,597.484253 1216.440674,597.484253 
	C1216.440674,603.513489 1216.440674,609.041809 1216.440674,614.789429 
	C1187.383179,614.789429 1158.463379,614.789429 1128.969971,614.789429 
	C1128.969971,609.357849 1128.969971,603.928223 1128.969971,597.998718 
z"/>
<path fill="#050505" opacity="1.000000" stroke="none" 
	d="
M1742.773193,520.597534 
	C1747.662231,507.331757 1747.662231,507.332092 1761.279175,507.366119 
	C1762.762817,507.369843 1764.246460,507.366638 1766.046509,507.366638 
	C1766.046509,543.226807 1766.046509,578.811646 1766.046509,614.703674 
	C1762.037842,614.703674 1757.958496,614.703674 1753.427002,614.703674 
	C1753.427002,585.537537 1753.427002,556.231262 1753.427002,526.924927 
	C1753.202148,526.897400 1752.977295,526.869934 1752.752441,526.842407 
	C1741.740845,556.081665 1730.729370,585.320923 1719.639648,614.767822 
	C1716.340576,614.767822 1713.049194,614.767822 1709.011963,614.767822 
	C1697.761475,585.148193 1686.375977,555.173279 1674.774902,524.630676 
	C1674.774902,554.942871 1674.774902,584.738647 1674.774902,614.770752 
	C1670.426147,614.770752 1666.357666,614.770752 1662.085327,614.770752 
	C1662.085327,579.029724 1662.085327,543.453918 1662.085327,507.373779 
	C1667.881592,507.373779 1673.513916,507.205841 1679.119263,507.520447 
	C1680.194214,507.580780 1681.631348,509.363556 1682.111572,510.647125 
	C1692.693481,538.934082 1703.163208,567.263123 1713.663452,595.580750 
	C1713.830200,596.030457 1714.110596,596.437927 1714.216309,596.636475 
	C1723.666016,571.479553 1733.153931,546.220886 1742.773193,520.597534 
z"/>
<path fill="#050505" opacity="1.000000" stroke="none" 
	d="
M645.393799,521.012573 
	C645.393799,516.375549 645.393799,512.235413 645.393799,508.332153 
	C645.988281,507.906342 646.253113,507.550598 646.511169,507.555420 
	C666.615784,507.931610 686.862915,507.000153 706.781494,509.134003 
	C724.779541,511.062073 733.977661,523.890320 733.965454,541.662109 
	C733.953552,558.986084 723.159363,572.639954 706.357788,575.859009 
	C700.857544,576.912842 695.122742,576.894043 689.486511,577.046875 
	C682.526306,577.235718 675.557007,577.092163 668.151001,577.092163 
	C668.151001,589.737183 668.151001,602.127197 668.151001,614.759399 
	C660.460754,614.759399 653.210876,614.759399 645.393738,614.759399 
	C645.393738,583.669250 645.393738,552.589355 645.393799,521.012573 
M711.077087,544.192871 
	C711.307495,532.015442 706.767212,525.974304 695.657776,525.239014 
	C686.601440,524.639526 677.473816,525.117065 668.257324,525.117065 
	C668.257324,536.765686 668.257324,548.141785 668.257324,559.741699 
	C677.284241,559.741699 686.088196,560.189636 694.826294,559.622253 
	C704.568481,558.989624 709.239502,554.328613 711.077087,544.192871 
z"/>
<path fill="#040404" opacity="1.000000" stroke="none" 
	d="
M809.264099,615.007446 
	C807.309937,615.007446 805.822021,615.007446 804.239441,615.007446 
	C801.408447,606.818115 798.576721,598.839844 795.917786,590.804321 
	C795.127197,588.414978 793.956726,587.452148 791.313354,587.486694 
	C779.820435,587.636780 768.322327,587.445557 756.832520,587.687012 
	C755.421814,587.716614 753.307434,589.315430 752.782959,590.674622 
	C749.741577,598.557556 747.078857,606.586487 744.222961,614.752136 
	C736.832703,614.752136 729.566895,614.752136 721.730896,614.752136 
	C725.809692,603.595520 729.845459,592.599365 733.850830,581.592102 
	C742.308228,558.350708 750.807678,535.124207 759.131470,511.835022 
	C760.296265,508.575897 761.677979,507.041382 765.436768,507.267365 
	C771.744507,507.646637 778.098083,507.219147 784.416748,507.493042 
	C785.767029,507.551575 787.807983,508.877319 788.254089,510.089142 
	C800.924377,544.513611 813.431763,578.998047 825.951233,613.478027 
	C826.056396,613.767578 825.964294,614.128845 825.964294,615.007446 
	C820.550476,615.007446 815.140442,615.007446 809.264099,615.007446 
M760.681580,565.076050 
	C760.122375,566.752808 759.563232,568.429626 758.928833,570.331970 
	C769.218262,570.331970 779.056641,570.331970 789.468994,570.331970 
	C784.358398,555.105896 779.393860,540.314880 774.229919,524.929871 
	C769.684143,538.381897 765.301636,551.350708 760.681580,565.076050 
z"/>
<path fill="#040404" opacity="1.000000" stroke="none" 
	d="
M815.838257,522.303467 
	C814.006165,517.305237 812.290588,512.680542 810.417664,507.631927 
	C818.468018,507.631927 825.900757,507.631927 833.976257,507.631927 
	C843.114990,536.442627 852.338684,565.521240 861.559143,594.589661 
	C870.706848,565.613220 879.896973,536.502380 889.058350,507.482666 
	C896.916809,507.482666 904.236267,507.482666 912.441650,507.482666 
	C899.228760,543.447021 886.156250,579.029297 873.024170,614.773621 
	C865.450989,614.773621 858.011841,614.773621 849.998596,614.773621 
	C838.721680,584.266846 827.338196,553.471924 815.838257,522.303467 
z"/>
<path fill="#070707" opacity="1.000000" stroke="none" 
	d="
M1602.000244,553.902588 
	C1616.304932,553.902588 1630.109863,553.902588 1644.108398,553.902588 
	C1644.108398,557.839294 1644.108398,561.456360 1644.108398,565.704712 
	C1633.717896,565.704712 1623.470947,565.704773 1613.223877,565.704773 
	C1602.945190,565.704773 1592.666382,565.704712 1582.178711,565.704712 
	C1582.178711,578.197449 1582.178711,590.299194 1582.178711,602.787720 
	C1605.199463,602.787720 1628.262939,602.787720 1651.686279,602.787720 
	C1651.686279,606.891235 1651.686279,610.624390 1651.686279,614.688232 
	C1623.878174,614.688232 1595.834229,614.688232 1567.505249,614.688232 
	C1567.505249,579.146118 1567.505249,543.592041 1567.505249,507.699158 
	C1594.457520,507.699158 1621.355835,507.699158 1648.619263,507.699158 
	C1648.619263,511.343079 1648.619263,515.073059 1648.619263,519.156006 
	C1626.633667,519.156006 1604.530029,519.156006 1582.196777,519.156006 
	C1582.196777,530.771301 1582.196777,542.041870 1582.196777,553.902588 
	C1588.634277,553.902588 1595.067261,553.902588 1602.000244,553.902588 
z"/>
<path fill="#040404" opacity="1.000000" stroke="none" 
	d="
M1258.762207,535.751709 
	C1259.144165,521.484863 1264.955078,513.164124 1278.102051,508.987427 
	C1292.427979,504.436249 1306.973999,504.582977 1321.375122,508.854065 
	C1332.099609,512.034790 1337.936279,519.842407 1340.974121,530.554565 
	C1336.179688,531.410522 1331.645508,532.220032 1327.163330,533.020264 
	C1320.395752,515.861267 1306.039795,516.140869 1291.039673,517.457397 
	C1287.353149,517.781067 1283.505005,519.137817 1280.248657,520.949707 
	C1270.405273,526.426514 1269.935913,539.931641 1279.712524,545.461670 
	C1285.231934,548.583557 1291.729004,550.085754 1297.905762,551.910767 
	C1306.657349,554.496460 1315.738647,556.105591 1324.284668,559.215698 
	C1337.741821,564.112976 1343.761475,572.838135 1343.658203,585.256042 
	C1343.549927,598.255310 1336.732300,608.138855 1323.573486,612.648804 
	C1307.172363,618.269958 1290.465942,618.165161 1274.081055,612.507996 
	C1262.941650,608.661865 1256.213867,600.472717 1253.849976,589.224426 
	C1258.335938,588.308655 1262.821899,587.392822 1267.589600,586.419556 
	C1271.852539,600.707214 1282.948486,604.689087 1295.861450,604.848877 
	C1302.907837,604.936035 1310.192627,604.125183 1316.977661,602.278687 
	C1325.199341,600.041260 1328.969604,594.136841 1329.066528,586.500549 
	C1329.163940,578.840576 1326.013550,573.902344 1317.398438,571.135071 
	C1307.299072,567.890991 1296.821777,565.842834 1286.611572,562.916138 
	C1281.697388,561.507446 1276.824951,559.654175 1272.277344,557.329773 
	C1263.777222,552.985107 1259.054688,545.916016 1258.762207,535.751709 
z"/>
<path fill="#040404" opacity="1.000000" stroke="none" 
	d="
M1403.832520,509.782867 
	C1419.154297,504.452423 1434.259888,504.499603 1449.341309,508.856567 
	C1460.087280,511.961060 1465.924805,519.815063 1468.972900,530.543274 
	C1464.191528,531.404602 1459.661255,532.220703 1455.180054,533.028015 
	C1448.471558,515.974609 1434.015381,516.010071 1418.571777,517.541260 
	C1415.043945,517.890991 1411.377930,519.194397 1408.263672,520.933411 
	C1398.417847,526.431274 1397.921387,539.910645 1407.698608,545.451050 
	C1413.215698,548.577393 1419.713501,550.082397 1425.890625,551.908081 
	C1434.642944,554.494934 1443.725342,556.102966 1452.272827,559.212158 
	C1465.737183,564.109741 1471.756714,572.827209 1471.658081,585.247681 
	C1471.555054,598.246887 1464.737183,608.135071 1451.577515,612.647034 
	C1435.174927,618.270813 1418.459595,618.184326 1402.083008,612.498901 
	C1391.328735,608.765442 1384.421997,601.014526 1381.679321,589.256958 
	C1386.338257,588.307007 1390.825806,587.392029 1395.591675,586.420349 
	C1399.855469,600.718506 1410.961792,604.749146 1423.871216,604.830139 
	C1431.227905,604.876343 1438.752686,603.683411 1445.911743,601.890137 
	C1452.076904,600.345825 1455.989746,595.550537 1456.931274,588.978516 
	C1458.086792,580.912964 1455.384766,575.094727 1447.642944,572.161011 
	C1439.612061,569.117676 1431.078125,567.415649 1422.797852,565.011658 
	C1416.429932,563.162842 1409.943237,561.559692 1403.812500,559.093567 
	C1392.974121,554.733826 1386.683594,546.857117 1386.706299,534.642883 
	C1386.728638,522.566711 1392.616943,514.586548 1403.832520,509.782867 
z"/>
<path fill="#03AE67" opacity="1.000000" stroke="none" 
	d="
M459.963409,467.914978 
	C456.876923,472.479553 454.075745,476.803314 450.962097,480.888885 
	C448.864868,483.640717 446.158142,483.678650 443.653351,481.256287 
	C440.670746,478.371979 437.740692,475.428101 434.910583,472.395569 
	C434.322571,471.765411 434.016571,470.634979 434.012238,469.733063 
	C433.954376,457.765259 433.973602,445.797089 433.973602,432.471252 
	C448.065033,433.216156 461.979340,433.326324 475.721008,434.922546 
	C483.444550,435.819763 488.625092,441.812744 490.954895,449.240540 
	C496.170746,465.869446 496.252380,482.714691 490.887482,499.281555 
	C487.388397,510.086823 480.198090,514.033875 465.381500,514.397583 
	C465.381500,497.404694 465.381500,480.405823 465.381500,463.406952 
	C464.742035,463.153015 464.102600,462.899078 463.463135,462.645142 
	C462.347321,464.287689 461.231537,465.930237 459.963409,467.914978 
z"/>
<path fill="#03AE67" opacity="1.000000" stroke="none" 
	d="
M402.809753,473.788849 
	C402.908173,507.834503 403.013153,541.460999 403.091919,575.087524 
	C403.113953,584.482422 400.817871,587.032715 391.306793,588.081421 
	C387.339691,588.518860 383.347198,588.748596 379.360840,588.979858 
	C377.381256,589.094727 375.389465,588.999756 372.225067,588.999756 
	C371.672516,576.949097 371.128632,565.087158 370.535675,552.155640 
	C380.287231,552.155640 389.364532,552.076599 398.438995,552.201050 
	C401.381866,552.241394 402.915070,551.597656 401.873383,548.436951 
	C394.827423,547.657349 387.856323,547.275940 381.041016,546.037292 
	C371.693939,544.338379 370.631958,542.721130 371.270111,533.507996 
	C372.283051,518.883484 373.539948,504.284485 380.029083,490.785461 
	C384.052795,482.415131 389.869934,475.762817 398.793030,472.453003 
	C399.869385,472.053741 401.456177,473.030670 402.809753,473.788849 
z"/>
<path fill="#090909" opacity="1.000000" stroke="none" 
	d="
M1523.832031,538.000488 
	C1523.832031,563.797241 1523.832031,589.094116 1523.832031,614.703857 
	C1518.969482,614.703857 1514.380737,614.703857 1509.243896,614.703857 
	C1509.243896,583.135620 1509.243896,551.415527 1509.243896,519.256470 
	C1496.617432,519.256470 1484.523804,519.256470 1472.345947,519.256470 
	C1472.345947,515.194519 1472.345947,511.577179 1472.345947,507.657288 
	C1501.764526,507.657288 1530.991943,507.657288 1560.494141,507.657288 
	C1560.494141,511.447968 1560.494141,515.049194 1560.494141,519.131409 
	C1548.473511,519.131409 1536.393433,519.131409 1523.832031,519.131409 
	C1523.832031,525.564819 1523.832031,531.532776 1523.832031,538.000488 
z"/>
<path fill="#03AE67" opacity="1.000000" stroke="none" 
	d="
M376.332092,599.664551 
	C375.519104,597.463562 374.873993,595.609741 374.080353,593.329102 
	C404.479401,593.329102 434.459076,593.329102 464.701599,593.329102 
	C461.916718,603.516541 455.488953,610.850525 447.378967,617.013916 
	C435.645813,625.930847 422.423004,630.215454 407.774048,628.806641 
	C395.964661,627.670898 387.718384,620.603760 381.830200,610.679932 
	C379.807007,607.270081 378.262939,603.575928 376.332092,599.664551 
z"/>
<path fill="#080808" opacity="1.000000" stroke="none" 
	d="
M1355.083496,528.000183 
	C1355.083496,521.014465 1355.083496,514.528625 1355.083496,507.701630 
	C1360.026245,507.701630 1364.742188,507.701630 1369.664551,507.701630 
	C1369.664551,543.362854 1369.664551,578.786499 1369.664551,614.612549 
	C1365.070679,614.612549 1360.361450,614.612549 1355.083496,614.612549 
	C1355.083496,585.984619 1355.083496,557.242371 1355.083496,528.000183 
z"/>
<path fill="#010101" opacity="1.000000" stroke="none" 
	d="
M1783.752075,576.999817 
	C1783.752075,553.713623 1783.752075,530.927490 1783.752075,507.761902 
	C1788.546875,507.761902 1793.079712,507.761902 1797.901611,507.761902 
	C1797.901611,543.323730 1797.901611,578.864136 1797.901611,614.703491 
	C1793.454224,614.703491 1788.885498,614.703491 1783.752075,614.703491 
	C1783.752075,602.314209 1783.752075,589.907043 1783.752075,576.999817 
z"/>
<path fill="#01AD66" opacity="1.000000" stroke="none" 
	d="
M367.146606,429.484314 
	C367.446747,429.122314 367.653900,429.292969 367.885925,429.717743 
	C367.286194,432.929504 368.395081,433.799133 371.550964,433.946442 
	C378.811737,434.285370 386.150055,434.666382 393.260681,436.043488 
	C400.477448,437.441132 401.906403,439.784302 402.550140,446.938019 
	C402.669006,448.258850 402.684937,449.591919 402.689789,450.919556 
	C402.706116,455.390869 402.695984,459.862244 402.695984,464.837067 
	C390.207886,466.326813 378.282654,469.346344 367.108246,477.461090 
	C367.108246,460.942261 367.108246,445.446411 367.146606,429.484314 
z"/>
<path fill="#06AF69" opacity="1.000000" stroke="none" 
	d="
M440.623535,484.387756 
	C448.243378,493.350220 453.934326,502.920746 456.397583,514.568726 
	C448.965485,514.568726 441.785034,514.568726 434.327911,514.568726 
	C434.229218,513.594055 434.081116,512.806641 434.080048,512.018982 
	C434.064880,500.938873 434.069733,489.858765 434.069733,477.311157 
	C436.707855,480.155731 438.547455,482.139313 440.623535,484.387756 
z"/>
<path fill="#01AD66" opacity="1.000000" stroke="none" 
	d="
M515.000732,445.296082 
	C515.200500,444.825073 515.496338,444.609070 515.919556,444.145630 
	C516.390991,444.364838 516.735168,444.831390 516.905029,445.762451 
	C516.608521,446.343536 516.486206,446.460114 516.363953,446.576660 
	C515.941650,446.234772 515.519287,445.892914 515.000732,445.296082 
z"/>
<path fill="#01AD66" opacity="1.000000" stroke="none" 
	d="
M516.923584,446.062561 
	C517.328369,446.493317 517.540283,447.088501 517.752136,447.683685 
	C517.408569,447.476440 517.064941,447.269226 516.542664,446.819336 
	C516.486206,446.460114 516.608521,446.343536 516.923584,446.062561 
z"/>
<path fill="#01AD66" opacity="1.000000" stroke="none" 
	d="
M390.597473,223.709778 
	C390.304474,224.001999 389.920044,223.998337 389.247345,223.990051 
	C389.474731,223.794922 389.990387,223.604401 390.597473,223.709778 
z"/>
<path fill="#FDFDFD" opacity="1.000000" stroke="none" 
	d="
M945.288818,529.182922 
	C967.635864,515.061951 992.940796,527.395142 994.927856,553.340393 
	C995.480042,560.550781 995.173340,568.058899 993.777466,575.138062 
	C990.888123,589.791382 980.374878,598.165283 965.689453,598.824280 
	C951.189087,599.474915 939.677002,591.811890 935.201660,577.956360 
	C931.637268,566.921082 931.138062,555.484131 935.141663,544.596680 
	C937.174072,539.069641 941.632629,534.434753 945.288818,529.182922 
z"/>
<path fill="#FDFDFD" opacity="1.000000" stroke="none" 
	d="
M711.049194,544.627869 
	C709.239502,554.328613 704.568481,558.989624 694.826294,559.622253 
	C686.088196,560.189636 677.284241,559.741699 668.257324,559.741699 
	C668.257324,548.141785 668.257324,536.765686 668.257324,525.117065 
	C677.473816,525.117065 686.601440,524.639526 695.657776,525.239014 
	C706.767212,525.974304 711.307495,532.015442 711.049194,544.627869 
z"/>
<path fill="#F6F6F6" opacity="1.000000" stroke="none" 
	d="
M760.800415,564.697754 
	C765.301636,551.350708 769.684143,538.381897 774.229919,524.929871 
	C779.393860,540.314880 784.358398,555.105896 789.468994,570.331970 
	C779.056641,570.331970 769.218262,570.331970 758.928833,570.331970 
	C759.563232,568.429626 760.122375,566.752808 760.800415,564.697754 
z"/>
</svg>