<?xml version="1.0" encoding="UTF-8"?>
<svg version="1.1" xmlns="http://www.w3.org/2000/svg" width="206" height="58">
<path d="M0 0 C0.66 0 1.32 0 2 0 C10.00277341 13.95391532 17.98783012 27.91784104 25.875 41.9375 C26.75696045 43.49778931 26.75696045 43.49778931 27.65673828 45.08959961 C28.20056152 46.05905518 28.74438477 47.02851074 29.3046875 48.02734375 C30.0160083 49.29179321 30.0160083 49.29179321 30.74169922 50.58178711 C31.98834446 52.97760029 32.996967 55.49241751 34 58 C12.22 58 -9.56 58 -32 58 C-30.65691735 53.97075204 -29.71546863 51.19301242 -27.671875 47.69921875 C-27.20845703 46.8987915 -26.74503906 46.09836426 -26.26757812 45.27368164 C-25.76677734 44.4202417 -25.26597656 43.56680176 -24.75 42.6875 C-23.67068287 40.82621161 -22.5926134 38.96419932 -21.515625 37.1015625 C-20.66194336 35.62671387 -20.66194336 35.62671387 -19.79101562 34.12207031 C-16.03283248 27.57086447 -12.38144109 20.95885761 -8.72167969 14.35229492 C-2.78430916 3.68920964 -2.78430916 3.68920964 0 0 Z " fill="#E7F3EC" transform="translate(32,0)"/>
<path d="M0 0 C1.65 0 3.3 0 5 0 C5.99 2.64 6.98 5.28 8 8 C8.99 5.36 9.98 2.72 11 0 C12.32 0 13.64 0 15 0 C15.33 0.66 15.66 1.32 16 2 C16.99 1.34 17.98 0.68 19 0 C22.5625 -0.25 22.5625 -0.25 26 0 C26.66 0.66 27.32 1.32 28 2 C28.33 1.34 28.66 0.68 29 0 C31.25 -0.375 31.25 -0.375 34 0 C36.3125 3 36.3125 3 38 6 C38.66 4.02 39.32 2.04 40 0 C60.13 0 80.26 0 101 0 C102.32 2.97 103.64 5.94 105 9 C106.32 6.03 107.64 3.06 109 0 C111.97 0 114.94 0 118 0 C118 5.28 118 10.56 118 16 C115.36 16 112.72 16 110 16 C109.505 13.03 109.505 13.03 109 10 C108.01 11.98 107.02 13.96 106 16 C105.01 16 104.02 16 103 16 C102.01 13.69 101.02 11.38 100 9 C99.67 11.31 99.34 13.62 99 16 C95.37 16 91.74 16 88 16 C88 11.71 88 7.42 88 3 C86.68 3 85.36 3 84 3 C84 7.29 84 11.58 84 16 C83.01 16 82.02 16 81 16 C81 11.71 81 7.42 81 3 C79.02 3.33 77.04 3.66 75 4 C72.125 3.5625 72.125 3.5625 70 3 C70 3.99 70 4.98 70 6 C70.969375 6.309375 71.93875 6.61875 72.9375 6.9375 C76 8 76 8 77 9 C77.25 11.9375 77.25 11.9375 77 15 C73.22421818 17.51718788 71.693447 17.02496176 67.25 16.5625 C62.2282868 16.04619832 57.98045192 16.24989871 53 17 C50.43812221 17.06018712 47.87309457 17.0384739 45.3125 16.9375 C44.02988281 16.90527344 42.74726563 16.87304688 41.42578125 16.83984375 C38 16 38 16 35.54296875 12.94140625 C35.03378906 11.97074219 34.52460937 11.00007813 34 10 C33.67 11.98 33.34 13.96 33 16 C31.88625 15.690625 31.88625 15.690625 30.75 15.375 C28.05723545 14.73446502 28.05723545 14.73446502 26.125 16 C22.71201906 17.60610868 20.54946545 17.0775163 17 16 C15.16597476 13.76494883 14.2129609 11.66851398 13 9 C12.01 11.31 11.02 13.62 10 16 C8.35 16 6.7 16 5 16 C3.35 10.72 1.7 5.44 0 0 Z M61 2 C60.67 2.33 60.34 2.66 60 3 C58.33382885 3.04063832 56.66611905 3.042721 55 3 C55 3.99 55 4.98 55 6 C55.969375 6.391875 56.93875 6.78375 57.9375 7.1875 C61 9 61 9 61.875 11.6875 C61.936875 12.8321875 61.936875 12.8321875 62 14 C62.33 14 62.66 14 63 14 C63 10.37 63 6.74 63 3 C62.34 2.67 61.68 2.34 61 2 Z M66 3 C66 6.63 66 10.26 66 14 C68.31 14 70.62 14 73 14 C73 12.68 73 11.36 73 10 C71.35666496 8.96210419 69.68756133 7.96432076 68 7 C67.34 5.68 66.68 4.36 66 3 Z M91 3 C91 4.32 91 5.64 91 7 C92.98 7 94.96 7 97 7 C97 5.68 97 4.36 97 3 C95.02 3 93.04 3 91 3 Z M113 3 C113 6.63 113 10.26 113 14 C113.33 14 113.66 14 114 14 C114 10.37 114 6.74 114 3 C113.67 3 113.34 3 113 3 Z M14 4 C15 6 15 6 15 6 Z M20 4 C18.66812207 5.11166864 18.66812207 5.11166864 18.8125 7.9375 C18.66721267 11.10892859 18.66721267 11.10892859 21 13 C23.10820797 12.6814823 23.10820797 12.6814823 25 12 C25 9.69 25 7.38 25 5 C23.34385343 4.61781233 21.67542976 4.28604898 20 4 Z M47 4 C47 4.66 47 5.32 47 6 C48.65 6 50.3 6 52 6 C52 5.34 52 4.68 52 4 C50.35 4 48.7 4 47 4 Z M52 8 C52 8.66 52 9.32 52 10 C50.35 10 48.7 10 47 10 C47 10.99 47 11.98 47 13 C50.63 13.33 54.26 13.66 58 14 C58 12.68 58 11.36 58 10 C56.02 9.34 54.04 8.68 52 8 Z M91 9 C91 10.65 91 12.3 91 14 C92.98 14 94.96 14 97 14 C97 12.35 97 10.7 97 9 C95.02 9 93.04 9 91 9 Z " fill="#221E1F" transform="translate(88,26)"/>
<path d="M0 0 C0.66 0 1.32 0 2 0 C4.26378916 3.93072314 6.52402771 7.86345779 8.78100586 11.7980957 C9.54923914 13.13621957 10.31843826 14.47378943 11.08862305 15.81079102 C12.19574539 17.73308661 13.29937462 19.65735036 14.40234375 21.58203125 C14.74716293 22.17901321 15.09198212 22.77599518 15.44725037 23.3910675 C16.88923191 25.9141101 18.07767445 28.23302335 19 31 C17.68 31 16.36 31 15 31 C15.061875 32.27875 15.12375 33.5575 15.1875 34.875 C15.29296875 37.0546875 15.29296875 37.0546875 15 39 C14.01 39.66 13.02 40.32 12 41 C12 38.69 12 36.38 12 34 C11.34 34 10.68 34 10 34 C10 34.66 10 35.32 10 36 C8.515 35.505 8.515 35.505 7 35 C7 33.35 7 31.7 7 30 C5.68 30 4.36 30 3 30 C3 36.93 3 43.86 3 51 C1.35 51 -0.3 51 -2 51 C-2.18451025 40.44191344 -2.18451025 40.44191344 -1 36 C-1.66 36 -2.32 36 -3 36 C-3.05395478 34.37536158 -3.09277195 32.75021459 -3.125 31.125 C-3.14820313 30.22007813 -3.17140625 29.31515625 -3.1953125 28.3828125 C-3 26 -3 26 -1 24 C-4.96 23.67 -8.92 23.34 -13 23 C-3.81932443 5.5043205 -3.81932443 5.5043205 0 0 Z " fill="#00AD65" transform="translate(32,0)"/>
<path d="M0 0 C2.31 0.33 4.62 0.66 7 1 C7 7.27 7 13.54 7 20 C5.35 20.33 3.7 20.66 2 21 C2 21.66 2 22.32 2 23 C3.65 23 5.3 23 7 23 C7.2475 23.886875 7.495 24.77375 7.75 25.6875 C9.00815587 29.53768438 9.00815587 29.53768438 13 34 C2.77 34 -7.46 34 -18 34 C-16.58865921 29.76597763 -15.48098232 26.78697975 -13.3203125 23.06640625 C-12.80339844 22.16986328 -12.28648438 21.27332031 -11.75390625 20.34960938 C-10.94759766 18.96999023 -10.94759766 18.96999023 -10.125 17.5625 C-9.33029297 16.18868164 -9.33029297 16.18868164 -8.51953125 14.78710938 C-7.48940658 13.00675743 -6.45725899 11.22757406 -5.42285156 9.44970703 C-3.59870659 6.30909779 -1.79725909 3.15605643 0 0 Z " fill="#02AD65" transform="translate(18,24)"/>
<path d="M0 0 C3.32933184 4.30193877 5.96831161 8.92343556 8.6875 13.625 C9.19861328 14.49640625 9.70972656 15.3678125 10.23632812 16.265625 C10.71908203 17.09835938 11.20183594 17.93109375 11.69921875 18.7890625 C12.14096436 19.54912598 12.58270996 20.30918945 13.0378418 21.09228516 C14 23 14 23 14 25 C5.09 25 -3.82 25 -13 25 C-11.35 23.02 -9.7 21.04 -8 19 C-8.33 18.67 -8.66 18.34 -9 18 C-10.32 18 -11.64 18 -13 18 C-13 15.03 -13 12.06 -13 9 C-12.01 9 -11.02 9 -10 9 C-10 9.66 -10 10.32 -10 11 C-9.34 11 -8.68 11 -8 11 C-8 10.34 -8 9.68 -8 9 C-7.05125 8.62875 -6.1025 8.2575 -5.125 7.875 C-1.74446192 6.26004095 -1.74446192 6.26004095 -0.625 2.8125 C-0.41875 1.884375 -0.2125 0.95625 0 0 Z " fill="#01AD65" transform="translate(52,33)"/>
<path d="M0 0 C1.32 0 2.64 0 4 0 C4.12375 0.804375 4.2475 1.60875 4.375 2.4375 C4.684375 3.7059375 4.684375 3.7059375 5 5 C5.66 5.33 6.32 5.66 7 6 C7 5.34 7 4.68 7 4 C7.66 4 8.32 4 9 4 C9.33 5.98 9.66 7.96 10 10 C11.23267348 8.99163938 11.23267348 8.99163938 11.09765625 6.93359375 C11.08605469 6.10988281 11.07445312 5.28617188 11.0625 4.4375 C11.05347656 3.61121094 11.04445313 2.78492188 11.03515625 1.93359375 C11.02355469 1.29550781 11.01195312 0.65742188 11 0 C15.875 0.875 15.875 0.875 17 2 C17.375 4.8125 17.375 4.8125 17 8 C14.6875 10.375 14.6875 10.375 12 12 C11.01 12 10.02 12 9 12 C9 12.66 9 13.32 9 14 C8.34 14 7.68 14 7 14 C7 13.34 7 12.68 7 12 C6.01 12 5.02 12 4 12 C4 14.97 4 17.94 4 21 C4.99 21.33 5.98 21.66 7 22 C4.03 22 1.06 22 -2 22 C-1.34 21.67 -0.68 21.34 0 21 C0 15.72 0 10.44 0 5 C-0.66 4.67 -1.32 4.34 -2 4 C-1.34 4 -0.68 4 0 4 C0 2.68 0 1.36 0 0 Z " fill="#C0E0CC" transform="translate(35,30)"/>
<path d="M0 0 C0.33 0.99 0.66 1.98 1 3 C6.94 3 12.88 3 19 3 C18.67 3.66 18.34 4.32 18 5 C18.00854201 7.05008255 18.12994374 9.07909984 18.2578125 11.125 C18.17273438 11.74375 18.08765625 12.3625 18 13 C17.01 13.66 16.02 14.32 15 15 C15 12.69 15 10.38 15 8 C14.34 8 13.68 8 13 8 C13 8.66 13 9.32 13 10 C12.01 9.67 11.02 9.34 10 9 C10 7.35 10 5.7 10 4 C8.68 4 7.36 4 6 4 C6 10.93 6 17.86 6 25 C4.35 25 2.7 25 1 25 C0.81548975 14.44191344 0.81548975 14.44191344 2 10 C1.34 10 0.68 10 0 10 C0 6.7 0 3.4 0 0 Z " fill="#9AD5B7" transform="translate(29,26)"/>
<path d="M0 0 C1.98 0 3.96 0 6 0 C6.83719383 2.29032311 7.6698929 4.58210957 8.5 6.875 C8.73847656 7.52597656 8.97695312 8.17695312 9.22265625 8.84765625 C11 13.7734375 11 13.7734375 11 16 C9.35 16 7.7 16 6 16 C6 15.01 6 14.02 6 13 C3.52733235 13.34444881 3.52733235 13.34444881 1 14 C0.67 14.66 0.34 15.32 0 16 C-1.65 16 -3.3 16 -5 16 C-3.35 10.72 -1.7 5.44 0 0 Z M2 7 C2 7.66 2 8.32 2 9 C2.66 9 3.32 9 4 9 C4 8.34 4 7.68 4 7 C3.34 7 2.68 7 2 7 Z " fill="#221E1F" transform="translate(79,26)"/>
<path d="M0 0 C8 0 8 0 10.5625 1.6875 C12 4 12 4 11.875 6.625 C11 9 11 9 9 11 C6.375 11.125 6.375 11.125 4 11 C4 12.65 4 14.3 4 16 C2.68 16 1.36 16 0 16 C0 10.72 0 5.44 0 0 Z M4 4 C4 4.99 4 5.98 4 7 C4.99 7 5.98 7 7 7 C7 6.01 7 5.02 7 4 C6.01 4 5.02 4 4 4 Z " fill="#221E1F" transform="translate(64,26)"/>
<path d="M0 0 C1.32 0 2.64 0 4 0 C4 6.93 4 13.86 4 21 C4.99 21.33 5.98 21.66 7 22 C4.03 22 1.06 22 -2 22 C-1.34 21.67 -0.68 21.34 0 21 C0 15.72 0 10.44 0 5 C-0.66 4.67 -1.32 4.34 -2 4 C-1.34 4 -0.68 4 0 4 C0 2.68 0 1.36 0 0 Z " fill="#FBFDFC" transform="translate(35,30)"/>
<path d="M0 0 C5.75 -0.125 5.75 -0.125 8 1 C8.29296875 7.0546875 8.29296875 7.0546875 8 9 C7.01 9.66 6.02 10.32 5 11 C5 8.69 5 6.38 5 4 C4.34 4 3.68 4 3 4 C3 4.66 3 5.32 3 6 C2.01 5.67 1.02 5.34 0 5 C0 3.35 0 1.7 0 0 Z " fill="#07AD67" transform="translate(39,30)"/>
<path d="M0 0 C5 1 5 1 6 2 C6.4640884 7.33701657 6.4640884 7.33701657 4.6875 9.875 C3 11 3 11 0 11 C0 7.37 0 3.74 0 0 Z " fill="#F0F7F3" transform="translate(46,30)"/>
<path d="M0 0 C3.96 0 7.92 0 12 0 C9 4 9 4 6 4.9375 C3 5 3 5 1.125 3.6875 C0 2 0 2 0 0 Z " fill="#0AAE68" transform="translate(31,52)"/>
<path d="M0 0 C0.66 0 1.32 0 2 0 C2 2.97 2 5.94 2 9 C0.68 9 -0.64 9 -2 9 C-1.125 2.25 -1.125 2.25 0 0 Z " fill="#14B06C" transform="translate(32,36)"/>
<path d="M0 0 C0.66 0.33 1.32 0.66 2 1 C2.625 4.0625 2.625 4.0625 3 7 C1.68 7 0.36 7 -1 7 C-1.04254356 5.00045254 -1.04080783 2.99958364 -1 1 C-0.67 0.67 -0.34 0.34 0 0 Z " fill="#8BD3B1" transform="translate(39,35)"/>
<path d="M0 0 C1.32 0 2.64 0 4 0 C4 1.32 4 2.64 4 4 C2.68 4.33 1.36 4.66 0 5 C0 3.35 0 1.7 0 0 Z " fill="#05AD66" transform="translate(30,30)"/>
</svg>
