<?xml version="1.0" encoding="UTF-8" standalone="no"?><!DOCTYPE svg PUBLIC "-//W3C//DTD SVG 1.1//EN" "http://www.w3.org/Graphics/SVG/1.1/DTD/svg11.dtd"><svg width="100%" height="100%" viewBox="0 0 2363 1182" version="1.1" xmlns="http://www.w3.org/2000/svg" xmlns:xlink="http://www.w3.org/1999/xlink" xml:space="preserve" xmlns:serif="http://www.serif.com/" style="fill-rule:evenodd;clip-rule:evenodd;stroke-linejoin:round;stroke-miterlimit:2;"><rect id="Page-1" serif:id="Page 1" x="0" y="0" width="2362.2" height="1181.1" style="fill:none;"/><g id="Page-11" serif:id="Page 1"><g id="Layer-1" serif:id="Layer 1"><path d="M704.912,412.365l201.213,356.375l-402.421,0l201.208,-356.375Z" style="fill:#00ad65;fill-rule:nonzero;"/><path d="M625.07,692.838l0,3.988c0,-0 73.125,0.004 89.383,0.004l0,-3.992c-24.254,0 -29.904,-3.821 -29.866,-16.054l-0,-100.871c-0.038,-14.154 12.258,-16.65 30.195,-16.65l0,-3.321l-90.045,0l-0,3.321c22.6,0 31.57,2.496 31.541,16.65l0,100.871c0.029,11.908 -6.121,16.054 -31.208,16.054" style="fill:#fff;"/><path d="M742.03,594.484l25.912,0c16.954,0 26.263,7.646 26.258,34.058c-0.012,30.071 -9.304,36.059 -25.92,36.055c-15.038,-0.009 -19.013,-0.113 -26.25,-0l-0,-70.113Zm27.254,73.767c32.558,-0 52.825,-13.954 52.825,-38.879c-0,-30.234 -33.563,-38.209 -52.617,-38.292l-84.279,0.083l-0,3.321c28.908,0 29.904,4.654 29.904,12.296l0,110.317c0,9.304 -1.329,11.3 -30.237,11.3l-0,3.654c-0,-0 66.454,0.054 91,0.075c0.045,-1.904 0.041,-3.4 0.041,-3.4c-23.925,-0 -33.891,-0.667 -33.891,-11.3l-0,-49.175l27.254,-0Z" style="fill:#fff;fill-rule:nonzero;"/><path d="M719.445,621.541c-17.659,0 -31.892,5.325 -44.063,18.929c-12.946,14.525 -19.267,33.063 -19.267,56.496c0,23.642 8.163,44.05 20.155,55.971c10.662,10.6 27.029,15.804 45.108,15.804c11.808,0 22.242,-2.9 30.621,-9.446c10.629,-8.312 20.604,-19.275 20.604,-37.22l-2.992,-0c0,19.604 -14.371,29 -17.279,31.237c-8.117,6.171 -19.35,9.633 -28.775,9.633c-15.396,0 -25.387,-8.637 -32.696,-28.241c-3.716,-9.954 -3.346,-22.554 -3.346,-37.996c0.025,-21.479 1.684,-38.096 6.667,-50.058c5.783,-13.88 15.196,-20.517 27.488,-20.555c13.387,-0.041 21.691,5.271 29.941,17.325c8.363,10.209 10.692,24.83 14.675,40.78l2.663,-0l0.021,-63.775l-2.738,-0c-0.358,2.312 -8.917,16.925 -12.237,16.925c-5.321,-0 -6.809,-7.967 -14.625,-11.296c-7.813,-3.338 -12.288,-4.513 -19.925,-4.513" style="fill:#fff;"/><g transform="matrix(4.16667,0,0,4.16667,0,0)"><text x="213.139px" y="160.784px" style="font-family:'FuturaStd-Bold', 'Futura Std', sans-serif;font-weight:700;font-size:31.309px;fill:#231f20;">P<tspan x="230.891px 251.273px 274.472px 301.617px 328.574px " y="160.784px 160.784px 160.784px 160.784px 160.784px ">AVONE</tspan></text><text x="345.167px" y="160.784px" style="font-family:'FuturaStd-Light', 'Futura Std', sans-serif;font-weight:300;font-size:31.309px;fill:#231f20;">S<tspan x="361.573px 367.521px 383.927px 397.39px 412.637px 440.095px " y="160.784px 160.784px 160.784px 160.784px 160.784px 160.784px ">ISTEMI</tspan></text></g></g></g></svg>