<?xml version="1.0" encoding="UTF-8"?>
<svg version="1.1" xmlns="http://www.w3.org/2000/svg" width="150" height="150">
<path d="M0 0 C2.88645574 3.44304219 5.19623725 6.89520427 7.35546875 10.83203125 C8.28202271 12.51208252 8.28202271 12.51208252 9.22729492 14.22607422 C9.88070889 15.42154277 10.53411033 16.61701817 11.1875 17.8125 C11.86574864 19.044733 12.54454461 20.27666489 13.22387695 21.50830078 C14.55725039 23.92628887 15.88880007 26.34526404 17.21875 28.76513672 C19.3557488 32.64606245 21.5124867 36.51527649 23.6875 40.375 C24.03103516 40.98520996 24.37457031 41.59541992 24.72851562 42.22412109 C27.6914823 47.47527864 30.69085789 52.70551436 33.6875 57.9375 C38.7451622 66.76813279 43.73100015 75.63749818 48.69555664 84.52075195 C52.82019186 91.89936134 56.96423497 99.26670336 61.125 106.625 C61.65730225 107.56649902 62.18960449 108.50799805 62.73803711 109.47802734 C63.23956299 110.36441895 63.74108887 111.25081055 64.2578125 112.1640625 C64.72606445 112.99325195 65.19431641 113.82244141 65.67675781 114.67675781 C66.52520032 116.16638492 67.38312015 117.65067717 68.25292969 119.12792969 C71 123.8010791 71 123.8010791 71 126 C24.47 126 -22.06 126 -70 126 C-69.16622253 121.83111263 -68.57381289 119.8559729 -66.55078125 116.359375 C-66.03966797 115.46669922 -65.52855469 114.57402344 -65.00195312 113.65429688 C-64.16567383 112.21666992 -64.16567383 112.21666992 -63.3125 110.75 C-62.12046915 108.67223321 -60.92908489 106.59409537 -59.73828125 104.515625 C-59.12033691 103.44119141 -58.50239258 102.36675781 -57.86572266 101.25976562 C-54.87149226 96.0282864 -51.93709335 90.76369969 -49 85.5 C-41.84103218 72.69787127 -34.62203257 59.93009039 -27.39550781 47.16601562 C-25.784049 44.31926832 -24.17321981 41.47216549 -22.5625 38.625 C-22.03672363 37.69647217 -21.51094727 36.76794434 -20.96923828 35.8112793 C-18.00699288 30.57366644 -15.06399464 25.32580891 -12.140625 20.06640625 C-11.18240845 18.34526611 -11.18240845 18.34526611 -10.20483398 16.58935547 C-8.96445732 14.35952597 -7.72688659 12.1281328 -6.49243164 9.89501953 C-5.6550647 8.39044189 -5.6550647 8.39044189 -4.80078125 6.85546875 C-4.30747314 5.96496826 -3.81416504 5.07446777 -3.3059082 4.15698242 C-2 2 -2 2 0 0 Z " fill="#03A158" transform="translate(75,10)"/>
<path d="M0 0 C10.56 0 21.12 0 32 0 C32 0.33 32 0.66 32 1 C28.7 1.66 25.4 2.32 22 3 C21.67 5.97 21.34 8.94 21 12 C21.97759277 11.97905273 22.95518555 11.95810547 23.96240234 11.93652344 C27.6337993 11.8634228 31.30513372 11.81794958 34.97705078 11.78027344 C36.55789045 11.76031578 38.13865783 11.7331394 39.71923828 11.69824219 C50.23698898 11.472054 59.0685282 11.45142752 67.78125 18.1328125 C70.87457704 22.13017526 73.16242826 26.40368711 75.5 30.875 C76.55040317 32.84334546 77.6025474 34.81076258 78.65625 36.77734375 C79.20023437 37.79554199 79.74421875 38.81374023 80.3046875 39.86279297 C83.13189481 45.09459221 86.06407434 50.26615317 89 55.4375 C89.80920898 56.86521729 89.80920898 56.86521729 90.63476562 58.32177734 C91.40336914 59.67650146 91.40336914 59.67650146 92.1875 61.05859375 C92.66832031 61.90663574 93.14914063 62.75467773 93.64453125 63.62841797 C94.50740321 65.13813307 95.37889501 66.64297779 96.26171875 68.14111328 C99 72.79979441 99 72.79979441 99 75 C90.43702343 75.06980773 81.87416769 75.1229663 73.31097603 75.15543652 C69.333842 75.17102819 65.35690404 75.19214604 61.37988281 75.22631836 C57.5348915 75.25914583 53.69008764 75.27690176 49.84496689 75.28463173 C48.38509042 75.29013361 46.92522308 75.30087635 45.4654274 75.31719017 C24.55061341 75.54142079 24.55061341 75.54142079 17.31640625 68.78125 C13.00737035 62.95062575 10.63430185 56.21716054 11 49 C7.7 49 4.4 49 1 49 C3.98806107 47.50596946 6.89656201 46.20689255 10 45 C10.07401964 39.19761976 10.12853989 33.39551278 10.16479492 27.59277344 C10.17990462 25.61778987 10.20039328 23.64283996 10.22631836 21.66796875 C10.26260619 18.83324894 10.27970416 15.99897174 10.29296875 13.1640625 C10.30845261 12.27756012 10.32393646 11.39105774 10.33988953 10.47769165 C10.34011612 9.65699188 10.34034271 8.83629211 10.34057617 7.99072266 C10.34723801 7.26680328 10.35389984 6.54288391 10.36076355 5.79702759 C10.13589586 3.58028018 10.13589586 3.58028018 7 2 C4.67612053 1.60612212 2.34206251 1.26513915 0 1 C0 0.67 0 0.34 0 0 Z " fill="#F8FCF9" transform="translate(47,61)"/>
<path d="M0 0 C2.26276992 2.88982778 4.1190678 5.84245256 5.8984375 9.05078125 C6.45450684 10.04907959 7.01057617 11.04737793 7.58349609 12.07592773 C8.17469238 13.14399658 8.76588867 14.21206543 9.375 15.3125 C10.62441253 17.56022248 11.87442748 19.8076102 13.125 22.0546875 C14.08212891 23.77510254 14.08212891 23.77510254 15.05859375 25.53027344 C16.9599221 28.92837184 18.88147263 32.31401561 20.8125 35.6953125 C21.41143066 36.74549561 22.01036133 37.79567871 22.62744141 38.87768555 C23.77754346 40.89140852 24.93078215 42.90334384 26.08740234 44.91333008 C26.60254395 45.81720459 27.11768555 46.7210791 27.6484375 47.65234375 C28.10395996 48.44632568 28.55948242 49.24030762 29.02880859 50.05834961 C30 52 30 52 30 54 C9.21 54 -11.58 54 -33 54 C-31.68 53.34 -30.36 52.68 -29 52 C-24.17005854 49.08191037 -20.5563231 46.1126462 -18 41 C-17.34 41 -16.68 41 -16 41 C-16.66 40.34 -17.32 39.68 -18 39 C-19.32 39 -20.64 39 -22 39 C-23.32 39 -24.64 39 -26 39 C-28 37 -28 37 -28.22705078 35.02880859 C-28.21134033 33.8505249 -28.21134033 33.8505249 -28.1953125 32.6484375 C-28.18564453 31.37226562 -28.18564453 31.37226562 -28.17578125 30.0703125 C-28.15902344 29.18085937 -28.14226562 28.29140625 -28.125 27.375 C-28.11597656 26.4778125 -28.10695313 25.580625 -28.09765625 24.65625 C-28.0740497 22.43723414 -28.0411231 20.21874923 -28 18 C-25.66705225 17.95758277 -23.33297433 17.95907063 -21 18 C-20 19 -20 19 -19.9375 21.5625 C-19.958125 22.366875 -19.97875 23.17125 -20 24 C-19.34 24 -18.68 24 -18 24 C-18 22.02 -18 20.04 -18 18 C-17.16855469 17.79503906 -16.33710937 17.59007813 -15.48046875 17.37890625 C-14.39378906 17.10949219 -13.30710937 16.84007813 -12.1875 16.5625 C-11.10855469 16.29566406 -10.02960938 16.02882813 -8.91796875 15.75390625 C-6.9259157 15.23922588 -4.95188476 14.65062825 -3 14 C-0.56643627 9.67366449 -0.40189164 4.85442796 0 0 Z " fill="#03A159" transform="translate(116,82)"/>
<path d="M0 0 C4.6589553 -0.09982927 9.31727078 -0.17191433 13.97705078 -0.21972656 C15.55789045 -0.23968422 17.13865783 -0.2668606 18.71923828 -0.30175781 C29.25132119 -0.52825422 37.42463838 -0.07046195 46.625 5.625 C48.90698274 9.56660655 48.58959967 13.57081221 48 18 C46.28804415 22.23483815 44.1900018 24.21702051 40 26 C36.67430378 26.52537839 33.36037324 26.8107751 30 27 C30 28.98 30 30.96 30 33 C29.34 33 28.68 33 28 33 C27.34 31.02 26.68 29.04 26 27 C24.02 26.67 22.04 26.34 20 26 C20 17.75 20 9.5 20 1 C16.37 1.33 12.74 1.66 9 2 C9.66 2.66 10.32 3.32 11 4 C11.125 7.625 11.125 7.625 11 11 C5.555 12.485 5.555 12.485 0 14 C0 9.38 0 4.76 0 0 Z " fill="#E8F5EE" transform="translate(68,73)"/>
<path d="M0 0 C4.29 0 8.58 0 13 0 C13.76078796 8.53773156 14.12767775 16.49904465 13 25 C14.98 25 16.96 25 19 25 C19 25.33 19 25.66 19 26 C17.02 26 15.04 26 13 26 C13.05184083 29.10553392 13.1468995 32.20827831 13.25 35.3125 C13.26417969 36.19357422 13.27835938 37.07464844 13.29296875 37.98242188 C13.32519531 38.82998047 13.35742188 39.67753906 13.390625 40.55078125 C13.41157227 41.33106689 13.43251953 42.11135254 13.45410156 42.9152832 C13.92376298 45.59065232 13.92376298 45.59065232 18 48 C11.4 48 4.8 48 -2 48 C-0.68 47.34 0.64 46.68 2 46 C4.16344945 43.83655055 3.18899476 38.82640295 3.203125 35.8203125 C3.20882507 34.89660858 3.21452515 33.97290466 3.22039795 33.02120972 C3.22986345 31.06249137 3.23638806 29.10375698 3.24023438 27.14501953 C3.2499367 24.14457452 3.28094401 21.1448152 3.3125 18.14453125 C3.31903002 16.24479575 3.3242805 14.34505533 3.328125 12.4453125 C3.3404718 11.54523468 3.3528186 10.64515686 3.36553955 9.71780396 C3.36253845 8.88038666 3.35953735 8.04296936 3.35644531 7.18017578 C3.36009094 6.44372833 3.36373657 5.70728088 3.36749268 4.94851685 C3.10263252 2.53882674 3.10263252 2.53882674 0 0 Z " fill="#FEFEFE" transform="translate(75,74)"/>
<path d="M0 0 C2.24834496 -0.13526139 4.49902514 -0.23210804 6.75 -0.3125 C8.00296875 -0.37050781 9.2559375 -0.42851563 10.546875 -0.48828125 C14 0 14 0 16.42578125 2.078125 C18.34883341 5.64746251 18.50229959 8.02332564 18.4375 12.0625 C18.43621094 13.27035156 18.43492188 14.47820312 18.43359375 15.72265625 C17.97568039 19.18382121 17.61888056 20.70203259 15 23 C13.35 23 11.7 23 10 23 C10 18.05 10 13.1 10 8 C9.34 8 8.68 8 8 8 C7.9175 8.61875 7.835 9.2375 7.75 9.875 C7 12 7 12 4.9375 13.25 C4.298125 13.4975 3.65875 13.745 3 14 C1.51171875 12.85546875 1.51171875 12.85546875 0 11 C-0.29296875 8.30078125 -0.29296875 8.30078125 -0.1875 5.3125 C-0.16042969 4.31863281 -0.13335937 3.32476562 -0.10546875 2.30078125 C-0.07066406 1.54152344 -0.03585938 0.78226562 0 0 Z " fill="#08A25B" transform="translate(88,75)"/>
<path d="M0 0 C8.91 0 17.82 0 27 0 C24.75277571 5.61806072 22.85830525 7.49562882 17.625 10.25 C14.15602478 11.24113578 11.59671306 11.4417016 8 11 C2.78294411 7.65320943 2.03955787 6.1186736 0 0 Z " fill="#13A762" transform="translate(70,122)"/>
<path d="M0 0 C0 7.59 0 15.18 0 23 C-9 22 -9 22 -10 21 C-10.17247523 13.30021314 -9.19080946 6.90232229 -4 1 C-2 0 -2 0 0 0 Z " fill="#17A865" transform="translate(79,86)"/>
<path d="M0 0 C0.66 0 1.32 0 2 0 C2 4.95 2 9.9 2 15 C4.97 15.495 4.97 15.495 8 16 C8 16.33 8 16.66 8 17 C6.02 17 4.04 17 2 17 C2 18.98 2 20.96 2 23 C1.34 23 0.68 23 0 23 C-0.66 21.02 -1.32 19.04 -2 17 C-3.98 16.67 -5.96 16.34 -8 16 C-8 12.37 -8 8.74 -8 5 C-7.01 5 -6.02 5 -5 5 C-2.84982472 4.25827123 -2.84982472 4.25827123 -1 3 C-0.67 2.01 -0.34 1.02 0 0 Z " fill="#DAEFE3" transform="translate(96,83)"/>
<path d="M0 0 C3.3 0 6.6 0 10 0 C10.1953125 6.8359375 10.1953125 6.8359375 10 9 C8 11 8 11 6.0546875 11.1953125 C4.03645833 11.13020833 2.01822917 11.06510417 0 11 C0 7.37 0 3.74 0 0 Z " fill="#18A865" transform="translate(69,110)"/>
<path d="M0 0 C6.8359375 -0.1953125 6.8359375 -0.1953125 9 0 C11 2 11 2 11.125 5.625 C11.08375 6.73875 11.0425 7.8525 11 9 C5.555 10.485 5.555 10.485 0 12 C0 8.04 0 4.08 0 0 Z " fill="#0EA55F" transform="translate(68,75)"/>
<path d="M0 0 C0.66 1.32 1.32 2.64 2 4 C1.34 4 0.68 4 0 4 C-0.185625 4.70125 -0.37125 5.4025 -0.5625 6.125 C-3.07823931 11.15647862 -7.11532594 14.15004895 -12.1875 16.4375 C-14.94501748 16.9890035 -16.40439832 16.99830834 -19 16 C-16.61489653 13.61489653 -14.82375404 13.1951504 -11.625 12.1875 C-6.15818875 10.27697827 -3.6047827 8.2095654 -1 3 C-2.32 2.67 -3.64 2.34 -5 2 C-3.35 2 -1.7 2 0 2 C0 1.34 0 0.68 0 0 Z " fill="#D4ECDE" transform="translate(98,119)"/>
<path d="M0 0 C3.82669043 3.42388092 5.72278474 6.00724943 7 11 C4.69 11 2.38 11 0 11 C0 7.37 0 3.74 0 0 Z " fill="#22AB6A" transform="translate(88,88)"/>
<path d="M0 0 C0.66 1.32 1.32 2.64 2 4 C1.34 4 0.68 4 0 4 C-0.2475 4.763125 -0.495 5.52625 -0.75 6.3125 C-2.10995558 9.2364045 -3.31585826 10.30004356 -6 12 C-4.50163895 8.88801935 -2.80066242 5.9465385 -1 3 C-2.32 2.67 -3.64 2.34 -5 2 C-3.35 2 -1.7 2 0 2 C0 1.34 0 0.68 0 0 Z " fill="#DDF1E6" transform="translate(98,119)"/>
</svg>
