<?xml version="1.0" encoding="UTF-8"?>
<svg id="Livello_1" xmlns="http://www.w3.org/2000/svg" version="1.1" viewBox="0 0 1080 1080">
  <!-- Generator: Adobe Illustrator 29.5.1, SVG Export Plug-In . SVG Version: 2.1.0 Build 141)  -->
  <defs>
    <style>
      .st0 {
        fill: #1d1d1b;
      }

      .st1 {
        fill: #00a158;
      }
    </style>
  </defs>
  <g>
    <path class="st1" d="M435.2,550.9v7.7c1.4,0,2.3,0,4.7,0-.5-1.9-1.2-3.7-2.4-5.1-.7-1.1-1.5-1.9-2.3-2.6Z"/>
    <path class="st1" d="M422.5,573.8c5.9,0,6.2-.6,6.2-2.7v-21.6c-2.2.5-3.9,2-5,4.7-1,2.4-1.5,5.7-1.6,9.7.9,1,2.8,1.3,6.4,1.3v1c-1.2,0-3.6,0-6.5,0,0,3,0,5.5.4,7.6Z"/>
    <path class="st1" d="M438.1,552c.8,0,2.9-3.5,2.9-4.1h.7v10.6c3.9,0,6.1-1.5,6.1-8.6,0-6.3-2.2-8.2-6.3-8.2h-6.2v7.9c1.3.9,1.8,2.4,2.9,2.4Z"/>
    <path class="st1" d="M426.3,498h0l-48.3,85.5h52.2c-4.3,0-8.3-1.2-10.8-3.8-2.9-2.9-4.8-7.8-4.8-13.4s0,0,0,0c-4.1,0-7.5,0-7.5,0v-1h0c6,0,7.5-1,7.5-3.9v-24.2c0-3.4-2.1-4-7.6-4v-.8h21.6v.8c-4.3,0-7.3.6-7.2,4v13.5c2.1-1.6,4.6-2.3,7.3-2.5v-3.6c0-1.8-.2-3-7.2-3v-.8h20.2c4.6,0,12.6,1.9,12.6,9.2s-4.9,9.3-12.7,9.3h0s0,0,0,0v3.8h-.6c-.3-1.3-.6-2.6-.9-3.8h-4.9v11.8c0,2.3,1.9,2.7,6.5,2.7,0-.5.1-1,.1-1.6h.7c0,.6,0,1.1-.1,1.6.3,0,.6,0,.9,0,0,0,0,.4,0,.8-.3,0-.7,0-1.1,0-.7,2.9-2.6,4.9-4.6,6.5-2,1.6-4.5,2.3-7.3,2.3h44.3l-48.3-85.5Z"/>
    <path class="st1" d="M441.5,574.7c-5.6,0-15.3,0-18.8,0,0,.2.1.4.2.6,1.8,4.7,4.2,6.8,7.8,6.8s5-.8,6.9-2.3c.6-.4,2.9-2,3.8-5.1Z"/>
  </g>
  <path class="st0" d="M472.3,559.8h6.1v-7.8h3.5c5.4,0,8.4-2.4,8.4-8s-3.5-7.8-8.6-7.8h-9.4v23.6h0ZM478.4,541.2h1c2.4,0,4.4,0,4.4,3s-2.2,2.9-4.4,2.9h-1v-5.9h0Z"/>
  <path class="st0" d="M504.5,555.7l1.5,4.1h6.5l-8.9-23.6h-6.7l-9.1,23.6h6.5l1.6-4.1h8.5ZM502.8,551h-5.1l2.5-7.5h0l2.5,7.5h0Z"/>
  <polygon class="st0" points="514.6 536.2 507.9 536.2 517.8 559.8 522.6 559.8 532.7 536.2 526 536.2 520.3 550.5 514.6 536.2 514.6 536.2"/>
  <path class="st0" d="M545.5,535.4c-6.8,0-13.1,5-13.1,12.1s5.5,13,13.1,13,13.1-5.4,13.1-13-6.3-12.1-13.1-12.1h0ZM545.5,541.4c3.7,0,6.7,3,6.7,6.2s-3,7-6.7,7-6.7-3-6.7-7,3-6.2,6.7-6.2h0Z"/>
  <polygon class="st0" points="560.7 559.8 566.9 559.8 566.9 545.4 566.9 545.4 578.2 559.8 584.3 559.8 584.3 536.2 578.2 536.2 578.2 550.6 578.1 550.6 566.9 536.2 560.7 536.2 560.7 559.8 560.7 559.8"/>
  <polygon class="st0" points="601.1 541.4 601.1 536.2 587.7 536.2 587.7 559.8 601.1 559.8 601.1 554.6 593.8 554.6 593.8 550.5 600.7 550.5 600.7 545.4 593.8 545.4 593.8 541.4 601.1 541.4 601.1 541.4"/>
  <path class="st0" d="M616.8,539.2c-1.1-2-3.4-3.3-5.8-3.3-3.5,0-6,2.5-6,6s.9,3.3,2.4,4.2l4.3,2.3c2,1,4.8,2.1,4.8,4.8s-2.7,5.6-5.8,5.6-4.7-1.8-5.7-4.3l-1.3.6c1.1,3,3.7,5.1,7,5.1s7.4-2.9,7.4-6.9-.9-3.6-2.7-4.7l-4.5-2.3c-1.9-.9-4.3-1.9-4.3-4.4s1.9-4.5,4.4-4.5,3.7,1.1,4.8,2.8l1.1-.9h0Z"/>
  <polygon class="st0" points="622.7 536.2 621.2 536.2 621.2 559.8 622.7 559.8 622.7 536.2 622.7 536.2"/>
  <path class="st0" d="M639.2,539.2c-1.1-2-3.4-3.3-5.8-3.3-3.5,0-6,2.5-6,6s.9,3.3,2.4,4.2l4.3,2.3c2,1,4.8,2.1,4.8,4.8s-2.7,5.6-5.8,5.6-4.7-1.8-5.7-4.3l-1.3.6c1.1,3,3.7,5.1,6.9,5.1s7.4-2.9,7.4-6.9-.9-3.6-2.7-4.7l-4.5-2.3c-1.9-.9-4.3-1.9-4.3-4.4s1.9-4.5,4.4-4.5,3.7,1.1,4.8,2.8l1.1-.9h0Z"/>
  <polygon class="st0" points="648.8 537.6 654.9 537.6 654.9 536.2 641.2 536.2 641.2 537.6 647.3 537.6 647.3 559.8 648.8 559.8 648.8 537.6 648.8 537.6"/>
  <polygon class="st0" points="668.3 537.6 668.3 536.2 657 536.2 657 559.8 668.3 559.8 668.3 558.4 658.5 558.4 658.5 547.6 668.1 547.6 668.1 546.2 658.5 546.2 658.5 537.6 668.3 537.6 668.3 537.6"/>
  <polygon class="st0" points="696.1 559.8 697.5 559.8 692.5 535.4 683.8 556.9 675.1 535.4 670 559.8 671.5 559.8 675.5 540.3 675.6 540.3 683.8 560.6 692 540.3 692.1 540.3 696.1 559.8 696.1 559.8"/>
  <polygon class="st0" points="701.2 536.2 699.7 536.2 699.7 559.8 701.2 559.8 701.2 536.2 701.2 536.2"/>
</svg>